<?xml version="1.0" standalone="no"?>
<!DOCTYPE svg PUBLIC "-//W3C//DTD SVG 20010904//EN"
 "http://www.w3.org/TR/2001/REC-SVG-20010904/DTD/svg10.dtd">
<svg version="1.0" xmlns="http://www.w3.org/2000/svg"
 width="376.000000pt" height="376.000000pt" viewBox="0 0 376.000000 376.000000"
 preserveAspectRatio="xMidYMid meet">
<metadata>
Created by potrace 1.16, written by Peter Selinger 2001-2019
</metadata>
<g transform="translate(0.000000,376.000000) scale(0.100000,-0.100000)"
fill="#FFFFFF" stroke="none">
<path d="M3202 3741 c-29 -11 -68 -29 -86 -40 -55 -34 -125 -117 -158 -186
-53 -114 -48 -268 12 -371 l18 -31 -407 -407 -406 -406 -30 18 c-131 80 -327
92 -470 28 l-50 -22 -352 410 c-240 280 -351 416 -346 426 36 86 45 129 41
200 -3 46 -13 93 -25 122 -30 65 -95 133 -162 165 -48 24 -68 28 -146 28 -71
0 -100 -5 -137 -22 -71 -32 -141 -103 -173 -174 -25 -56 -27 -70 -23 -153 3
-77 8 -99 33 -144 81 -149 269 -218 427 -157 12 5 100 -91 372 -406 337 -391
355 -414 341 -434 -109 -149 -126 -361 -42 -533 l30 -63 -403 -404 -403 -403
-53 25 c-257 118 -549 -39 -596 -321 -21 -129 28 -271 127 -365 166 -157 414
-157 580 0 132 124 168 317 92 484 l-25 52 404 404 403 403 68 -31 c37 -18 85
-37 106 -43 l37 -12 0 -272 0 -272 -47 -13 c-99 -26 -204 -117 -250 -217 -76
-167 -44 -354 84 -482 184 -184 499 -155 642 59 53 79 72 144 72 245 0 169
-89 307 -241 378 -30 14 -63 26 -72 26 -17 0 -18 20 -18 278 l0 279 53 12 c71
16 167 74 226 136 l48 51 394 -191 394 -191 6 -84 c7 -103 36 -166 104 -229
73 -67 124 -86 230 -86 71 0 100 5 137 22 63 29 134 96 166 158 24 44 27 61
27 150 0 89 -3 106 -27 150 -37 71 -112 137 -184 164 -112 43 -252 17 -350
-63 l-30 -25 -397 192 -397 192 8 35 c4 19 7 73 7 121 -1 88 -24 174 -66 243
l-19 31 406 406 407 407 31 -18 c103 -60 257 -65 371 -11 88 41 167 118 208
200 30 63 32 72 32 181 0 111 -1 118 -33 183 -43 86 -113 156 -199 199 -60 29
-77 33 -167 36 -81 2 -112 -2 -154 -17z m219 -264 c50 -34 79 -82 79 -134 0
-167 -222 -221 -298 -73 -40 78 -14 164 62 211 44 27 114 25 157 -4z m-2736
-82 c44 -43 24 -106 -38 -128 -22 -8 -72 16 -81 38 -14 37 -6 74 20 94 35 28
69 26 99 -4z m1302 -1294 c108 -55 162 -172 129 -282 -20 -69 -63 -121 -128
-153 -203 -101 -423 119 -322 322 61 123 205 173 321 113z m1488 -916 c70 -69
-30 -170 -102 -103 -14 13 -23 33 -23 50 0 36 40 78 75 78 14 0 37 -11 50 -25z
m-2973 -621 c91 -47 109 -175 34 -250 -64 -64 -158 -64 -222 0 -129 129 24
333 188 250z m1463 -3 c99 -57 101 -211 4 -270 -50 -31 -93 -34 -143 -13 -134
60 -135 232 -2 293 46 22 92 18 141 -10z"/>
</g>
</svg>
